<svg xmlns="http://www.w3.org/2000/svg" width="18" height="15" viewBox="0 0 18 15"><defs><style></style></defs><path class="a" d="M794.4,72.6a1.743,1.743,0,0,1,1.26.563,1.89,1.89,0,0,1,.54,1.313v11.25a1.89,1.89,0,0,1-.54,1.313,1.743,1.743,0,0,1-1.26.563H780a1.743,1.743,0,0,1-1.26-.562,1.889,1.889,0,0,1-.54-1.312V74.475a1.89,1.89,0,0,1,.54-1.313A1.743,1.743,0,0,1,780,72.6Zm-2.7,12.188V83.381c0-.75-.54-1.312-1.53-1.687a8.487,8.487,0,0,0-2.97-.656,6.819,6.819,0,0,0-2.97.656c-.99.469-1.53,1.031-1.53,1.688v1.406Zm-3.06-9a2.085,2.085,0,0,0-1.44-.656,1.759,1.759,0,0,0-1.44.656,2.257,2.257,0,0,0-.63,1.5,1.9,1.9,0,0,0,.63,1.5,2.085,2.085,0,0,0,1.44.656,1.759,1.759,0,0,0,1.44-.656,2.256,2.256,0,0,0,.63-1.5A3.146,3.146,0,0,0,788.64,75.787Z" transform="translate(-778.2 -72.6)"/></svg>