<svg xmlns="http://www.w3.org/2000/svg" width="18" height="12" viewBox="0 0 18 12"><defs><style>.a{fill:#999;}</style></defs><path class="a" d="M-97.539-116.749h-15.422a1.352,1.352,0,0,0-1.289,1.4v9.191a1.352,1.352,0,0,0,1.289,1.4h15.422a1.352,1.352,0,0,0,1.289-1.4v-9.191A1.352,1.352,0,0,0-97.539-116.749Zm.347,10.6a.384.384,0,0,1-.347.419h-15.422a.384.384,0,0,1-.347-.419v-4.47h16.116Zm-16.116-9.191a.384.384,0,0,1,.347-.419h15.422a.384.384,0,0,1,.347.419v1.406h-16.116Zm16.116,2.392v1.343h-16.116v-1.343Z" transform="translate(114.25 116.749)"/><path class="a" d="M-103-106.2h4.734a.5.5,0,0,0,.484-.514v-1.371a.5.5,0,0,0-.484-.514H-103a.5.5,0,0,0-.483.514v1.371A.5.5,0,0,0-103-106.2Z" transform="translate(113.75 116.346)"/></svg>