<svg xmlns="http://www.w3.org/2000/svg" width="18" height="12" viewBox="0 0 18 12"><defs><style>.a{fill:#999;}</style></defs><g transform="translate(0 0)"><path class="a" d="M-447.851,386.578H-465a.431.431,0,0,0-.426.444v11.114a.43.43,0,0,0,.426.443h17.148a.429.429,0,0,0,.426-.443V387.022A.43.43,0,0,0-447.851,386.578Zm-16.733,11.114v-10.24h16.307v10.24Z" transform="translate(465.425 -386.578)"/><path class="a" d="M-450.056,390.6a1.059,1.059,0,0,1-.994-1.112.422.422,0,0,0-.422-.431h-9.915a.422.422,0,0,0-.422.431,1.059,1.059,0,0,1-.994,1.112.422.422,0,0,0-.422.431v3.111a.438.438,0,0,0,.421.409,1.06,1.06,0,0,1,.994,1.113.421.421,0,0,0,.422.43h9.915a.421.421,0,0,0,.422-.43,1.06,1.06,0,0,1,.994-1.113.423.423,0,0,0,.422-.431v-3.089A.422.422,0,0,0-450.056,390.6Zm-10.954,4.633a1.917,1.917,0,0,0-1.373-1.492v-2.331a1.914,1.914,0,0,0,1.373-1.491h9.159a1.917,1.917,0,0,0,1.373,1.491v2.331a1.918,1.918,0,0,0-1.373,1.492Z" transform="translate(465.425 -386.578)"/><path class="a" d="M-456.175,390.918a1.906,1.906,0,0,0-1.9,1.9,1.906,1.906,0,0,0,1.9,1.9,1.906,1.906,0,0,0,1.9-1.9A1.906,1.906,0,0,0-456.175,390.918Z" transform="translate(465.175 -386.828)"/></g></svg>