<svg xmlns="http://www.w3.org/2000/svg" width="19" height="13" viewBox="0 0 19 13"><defs><style>.a{fill:#999;stroke:rgba(0,0,0,0);}</style></defs><g transform="translate(0.5 0.5)"><path class="a" d="M4204.29-1758a1.352,1.352,0,0,1-1.29-1.4v-9.191a1.352,1.352,0,0,1,1.29-1.4h15.421a1.352,1.352,0,0,1,1.29,1.4v9.191a1.352,1.352,0,0,1-1.29,1.4Zm15.421-.985a.385.385,0,0,0,.348-.419v-6.8h-7.537v.951a3.436,3.436,0,0,1,1.309.392h0c.076.042.149.086.218.132l-.366.777a3.129,3.129,0,0,0-1.534-.486c-.516,0-.853.195-.853.547,0,1.145,2.828.531,2.821,2.417,0,.831-.644,1.377-1.594,1.488v1Zm-15.769-.419a.384.384,0,0,0,.348.419h7.574v-.99a3.186,3.186,0,0,1-1.865-.816l.383-.764a2.762,2.762,0,0,0,1.773.764c.613,0,.98-.232.98-.637,0-1.167-2.829-.516-2.829-2.379a1.285,1.285,0,0,1,.513-1.053h0a2.069,2.069,0,0,1,1.044-.385v-.959h-7.922v6.8Zm0-9.191v1.407h16.117v-1.407a.385.385,0,0,0-.348-.418H4204.29A.384.384,0,0,0,4203.942-1768.6Z" transform="translate(-4203 1770)"/></g></svg>