<svg xmlns="http://www.w3.org/2000/svg" width="35" height="35" viewBox="0 0 35 35"><defs></defs><path class="a" d="M453.378,15.624c.1-.713.141-1.4.3-2.059a5.646,5.646,0,0,1,1.581-2.735.537.537,0,0,0,.175-.587A2.086,2.086,0,0,1,455.6,8.86q1.251-2.814,2.485-5.635c.051-.116.1-.235.169-.418-.189.083-.317.135-.441.194-1.149.557-2.294,1.123-3.447,1.67A2.349,2.349,0,0,1,451.207,3.6,2.315,2.315,0,0,1,452.37.51c1.61-.783,3.217-1.573,4.838-2.333a12.551,12.551,0,0,1,6.582-1.106,13.3,13.3,0,0,0,5.6-.417c.3-.1.595-.212.891-.32.061-.022.117-.055.215-.1-.212-.428-.423-.844-.627-1.264a.7.7,0,0,1,.375-1.093q2.3-1.1,4.6-2.19c.546-.259.8-.162,1.069.39q2.619,5.465,5.236,10.932c.3.627.221.846-.412,1.146Q478.468,5.23,476.2,6.305c-.561.265-.795.179-1.066-.381q-.293-.6-.586-1.207a1.439,1.439,0,0,0-.092-.127,9.916,9.916,0,0,0-1.378.932c-.773.728-1.5,1.511-2.21,2.3-.862.958-1.642,1.993-2.545,2.909a9.621,9.621,0,0,1-3.163,1.97l.427,2.832h.363q2.749,0,5.5,0c.641,0,.8.156.8.785,0,4.718,0,4.692,0,9.41,0,.666-.151.82-.8.82H447.12c-.633,0-.8-.165-.8-.79,0-4.718,0-4.692,0-9.41,0-.6.129-.713.708-.712,2.07.006,4.14,0,6.21,0A1.32,1.32,0,0,0,453.378,15.624Zm2.494,4.194a5.96,5.96,0,0,1-2.045-2.711c-.1-.283-.208-.383-.515-.38-1.793.017-3.586.008-5.379.009h-.37v8.58h23.523V16.762a1.017,1.017,0,0,0-.143-.024c-1.793,0-3.586,0-5.379-.008a.32.32,0,0,0-.355.27,5.44,5.44,0,0,1-1.181,1.988c-.252.278-.494.564-.726.83h.37c.883,0,1.767-.006,2.65,0a.6.6,0,1,1,0,1.195c-.145.007-.29,0-.435,0H455.838c-1.042,0-2.083.006-3.125,0-.536,0-.851-.51-.549-.91a.865.865,0,0,1,.6-.276C453.76,19.8,454.759,19.818,455.872,19.818Zm15.055-22.66c-.173.07-.3.125-.438.177a10.3,10.3,0,0,1-3.563.816c-1.237.023-2.478,0-3.712-.085a2.136,2.136,0,0,0-1.929.853,5.579,5.579,0,0,0-.744,1.157c-.271.595-.434,1.237-.691,1.84-.861,2.022-1.744,4.034-2.616,6.05-.209.483-.432.962-.606,1.457a1.017,1.017,0,0,0,.494,1.212,1.085,1.085,0,0,0,1.3-.459c.052-.091.091-.19.135-.285.919-2.01,1.827-4.026,2.761-6.03a3.385,3.385,0,1,1,5.086,4.2A10.783,10.783,0,0,1,464.4,9.373c-1.25.646-2.548,1.2-3.812,1.818a1,1,0,0,0-.51,1.39A1.037,1.037,0,0,0,461.53,13c1.131-.534,2.257-1.078,3.39-1.607A10.272,10.272,0,0,0,469.1,7.935c.331-.475.694-.929,1.047-1.388A11.123,11.123,0,0,1,473,3.9c.285-.181.577-.35.88-.533Zm9.067,5.917L475.038-7.2l-3.853,1.868,4.943,10.278ZM459.3,16.782c.01-.213.02-.341.021-.468,0-.714.005-.718-.647-.981a1.071,1.071,0,0,1-.751-1.05,1.124,1.124,0,0,1,.72-1.121l.268-.115-.119-1.435a2.315,2.315,0,0,1-2.607-.166,4.725,4.725,0,0,0-.475,6.332,4.812,4.812,0,0,0,6.4,1.177,4.743,4.743,0,0,0,1.939-5.763c-.63.293-1.262.582-1.889.881a2.275,2.275,0,0,1-1.729.109,5.522,5.522,0,0,1-.6-.274c-.07.807-.072.81.629,1.134a1.106,1.106,0,0,1,.725,1.073,1.131,1.131,0,0,1-.743,1.106,6.623,6.623,0,0,1-.686.217l-.04.425h-.383c.077-.406-.163-.466-.471-.555a8.758,8.758,0,0,1-1.169-.524l.5-.542Zm1.175-7.754c.336.1.634.159.912.271a.81.81,0,0,0,.71-.036c.664-.317,1.348-.593,2.008-.917a5.268,5.268,0,0,0,2.214-1.727,2.17,2.17,0,1,0-3.73-2.208C461.859,5.922,461.191,7.466,460.479,9.028ZM460.2-1.7a10.656,10.656,0,0,0-1.432.439c-1.958.9-3.9,1.831-5.847,2.758A1.134,1.134,0,0,0,452.3,3a1.134,1.134,0,0,0,1.564.439q2.431-1.178,4.853-2.373a.685.685,0,0,0,.3-.286C459.415-.025,459.8-.842,460.2-1.7Zm-.447,17.455v1.059c.332-.008.588-.1.635-.456C460.434,16.04,460.241,15.862,459.757,15.758Zm-.454-.99V13.737c-.348,0-.556.158-.58.475C458.7,14.575,458.967,14.686,459.3,14.769Z" transform="translate(-446.314 8.451)"/></svg>