<svg xmlns="http://www.w3.org/2000/svg" width="15.384" height="15.385" viewBox="0 0 15.384 15.385"><defs><style>.a{fill:#999;}</style></defs><g transform="translate(0 0)"><g transform="translate(0 0)"><path class="a" d="M19.8,11.252a.587.587,0,0,0-.587.587v3.985H9.562V6.174h4.129a.587.587,0,0,0,0-1.174H8.975a.586.586,0,0,0-.587.587v2.8h-2.8A.587.587,0,0,0,5,8.973V19.8a.587.587,0,0,0,.587.587H16.412A.587.587,0,0,0,17,19.8V17h2.8a.586.586,0,0,0,.587-.587V11.839A.586.586,0,0,0,19.8,11.252Zm-3.973,7.96H6.176V9.56H8.388v6.85A.586.586,0,0,0,8.975,17h6.85Z" transform="translate(-5.002 -5)"/></g><g transform="translate(8.42 0)"><g transform="translate(0 0)"><path class="a" d="M61.222,5.587V9.032a.587.587,0,0,1-1.174,0V7l-4.787,4.789a.593.593,0,0,1-.415.172.588.588,0,0,1-.415-1l4.787-4.787H57.192a.587.587,0,0,1,0-1.174h3.443a.722.722,0,0,1,.111.01.7.7,0,0,1,.11.033l.051.023a.577.577,0,0,1,.143.106.584.584,0,0,1,.162.3.574.574,0,0,1,.008.059s0,0,0,0A.406.406,0,0,1,61.222,5.587Z" transform="translate(-54.259 -5)"/></g><g transform="translate(6.961 0.538)"><path class="a" d="M94.981,8.2v.057a.642.642,0,0,0,0-.106A.4.4,0,0,1,94.981,8.2Z" transform="translate(-94.979 -8.147)"/></g></g></g></svg>