<svg xmlns="http://www.w3.org/2000/svg" width="70" height="70" viewBox="0 0 70 70"><defs><style>.a{fill:#96ded0;}.b{fill:#f7f8fa;}</style></defs><g transform="translate(-145 -204)"><path class="a" d="M35,0A35,35,0,1,1,0,35,35,35,0,0,1,35,0Z" transform="translate(145 204)"/><g transform="translate(168 222)"><path class="b" d="M20.223,0A4.685,4.685,0,0,1,24.9,4.674v29.54a.787.787,0,0,1-1.39.5l-3.4-3.515L16.92,34.74a.786.786,0,0,1-1.175-.009L12.331,31.2,9.145,34.74a.786.786,0,0,1-1.175-.009L4.556,31.2,1.37,34.74A.786.786,0,0,1,0,34.214L0,4.674A4.685,4.685,0,0,1,4.674,0H20.223ZM8.4,9.41c-.437-.754.859-1.647,1.343-.813l1.92,3.312,6.475-6.445a.784.784,0,0,1,1.106,1.112l-7.182,7.148a.785.785,0,0,1-1.246-.148L8.4,9.41Zm11.7,7.234a.786.786,0,0,1,0,1.573H4.8a.786.786,0,0,1,0-1.573Zm0,4.989a.786.786,0,0,1,0,1.573H4.8a.786.786,0,0,1,0-1.573Zm0,4.988a.786.786,0,0,1,0,1.573H4.8a.786.786,0,0,1,0-1.573Zm.125-25.048H4.674a3.113,3.113,0,0,0-3.1,3.1V32.168l2.38-2.64A.782.782,0,0,1,5.1,29.507L8.54,33.065l3.223-3.574a.785.785,0,0,1,1.109.016l3.443,3.558,3.223-3.574a.785.785,0,0,1,1.109.016l2.677,2.767V4.674a3.113,3.113,0,0,0-3.1-3.1Z" transform="translate(0)"/></g></g></svg>