<svg xmlns="http://www.w3.org/2000/svg" width="15" height="15" viewBox="0 0 15 15"><defs><style>.a{fill:#45a7e6;}</style></defs><path class="a" d="M194.467,2h.833a7.5,7.5,0,0,1,5.333,2.167A7.166,7.166,0,0,1,202.8,9.5a7.5,7.5,0,0,1-2.167,5.333A7.166,7.166,0,0,1,195.3,17a7.5,7.5,0,0,1-5.333-2.167A7.166,7.166,0,0,1,187.8,9.5a7.127,7.127,0,0,1,3-6h0l5.667,5.667L195.3,10.333l-4.5-4.5A5.916,5.916,0,0,0,189.55,9.5a5.75,5.75,0,1,0,11.5,0,5.731,5.731,0,0,0-1.417-3.833A5.468,5.468,0,0,0,196.05,3.75V5.333h-1.667V2Zm-3.917,8.083a.806.806,0,0,1,0-1.167.833.833,0,0,1,1.417.583.825.825,0,0,1-1.417.583Zm4.167,4.167a.806.806,0,1,1,.583.25A.757.757,0,0,1,194.717,14.25Zm5.333-5.333a.806.806,0,0,1,0,1.167.833.833,0,0,1-1.417-.583.825.825,0,0,1,1.417-.583Z" transform="translate(-187.8 -2)"/></svg>