<svg xmlns="http://www.w3.org/2000/svg" width="33.775" height="35" viewBox="0 0 33.775 35"><defs><style>.a{fill:#f2913b;}</style></defs><g transform="translate(1810 1002)"><rect class="a" width="1.051" height="6.306" transform="translate(-1783.077 -976.985)"/><rect class="a" width="1.051" height="5.781" transform="translate(-1778.873 -972.781)"/><rect class="a" width="1.051" height="4.204" transform="translate(-1787.281 -974.883)"/><path class="a" d="M46.253,55.867,39.859,50.3a1.343,1.343,0,0,0-.694-.326L24.344,47.8a2.173,2.173,0,0,0-1.439-.919l-5.639-.925a2.2,2.2,0,0,0-.354-.029,2.165,2.165,0,0,0-2.144,1.822l-1.241,7.555a2.174,2.174,0,0,0,1.793,2.5l5.638.926a2.16,2.16,0,0,0,1.554-.338l.206.155,2.135,2.027a8.453,8.453,0,0,0,1.038.76l2.445,1.522,4.839,2.5,2.652,1.517a2.753,2.753,0,0,0,.5.182,4.971,4.971,0,1,0,9.323-2.737l.466-.48a2.551,2.551,0,0,0,.708-1.489l.437-3.906A3.108,3.108,0,0,0,46.253,55.867ZM42.406,61.7a.139.139,0,0,1-.014.053l-.056.1a5.084,5.084,0,0,0-3.156.354l-.215-.091c-.128-.053-.25-.114-.338-.159l-1.181-.645a3.757,3.757,0,0,1-.789-.576l-1.025-.978,1.72-1.535a1.008,1.008,0,0,1,.816-.242l1.612.24a.5.5,0,0,1,.184.067l2.34,1.492a.094.094,0,0,1,.038.072ZM37.57,67.157l.509-.063.054,0,.612.011a1.579,1.579,0,0,1,.687.166l.729.366a1.474,1.474,0,0,0,.3.109l.5.121a1.355,1.355,0,0,0,.356.046h.31a1.636,1.636,0,0,0,.9-.289,1.336,1.336,0,0,0,.387-.444l.111-.206a.556.556,0,0,0,.065-.3l-.03-.462a3.394,3.394,0,0,0-.69-1.834l-.059-.08a3.4,3.4,0,0,0-.794-.741l-.517-.345a4.843,4.843,0,0,0-.4-.3,3.847,3.847,0,0,1,3.888,1.645,3.86,3.86,0,1,1-7.034,2.619C37.5,67.168,37.536,67.163,37.57,67.157ZM45,63.4a5.019,5.019,0,0,0-1.591-1.192,1.25,1.25,0,0,0,.112-.548l-.066-1.853a1.209,1.209,0,0,0-.556-.975l-2.339-1.492a1.636,1.636,0,0,0-.611-.226l-1.612-.24a2.121,2.121,0,0,0-1.719.508l-1.749,1.561a1.077,1.077,0,0,0-.03,1.587l1.052,1a4.869,4.869,0,0,0,1.023.748l1.194.653c.162.084.3.148.429.2l.8.335a3.878,3.878,0,0,1,.982.607.613.613,0,0,0,.051.038l.54.36a2.257,2.257,0,0,1,.525.486l.059.08a2.3,2.3,0,0,1,.469,1.241l.02.3-.031.059a.245.245,0,0,1-.078.086.627.627,0,0,1-.237.067h-.31a.278.278,0,0,1-.076-.01l-.517-.125a.342.342,0,0,1-.065-.024l-.729-.366a2.7,2.7,0,0,0-1.17-.284l-.652-.011h-.015c-.022,0-.045,0-.065,0l-.055,0-.562.07a1.8,1.8,0,0,1-.474,0,1.955,1.955,0,0,1-.593-.166l-2.634-1.508-4.814-2.49-2.412-1.5a7.389,7.389,0,0,1-.88-.641l-2.138-2.03a.519.519,0,0,0-.05-.043l-.16-.12a2.154,2.154,0,0,0,.2-.62L24.7,49.382a2.152,2.152,0,0,0,.028-.4L39,51.079a.235.235,0,0,1,.12.058l6.39,5.56a1.981,1.981,0,0,1,.643,1.641l-.435,3.89a1.433,1.433,0,0,1-.4.837ZM23.6,49.2l-1.24,7.555a1.056,1.056,0,0,1-1.219.875L15.5,56.707a1.06,1.06,0,0,1-.875-1.219l1.24-7.555a1.057,1.057,0,0,1,1.045-.889,1.094,1.094,0,0,1,.174.014l5.639.925A1.063,1.063,0,0,1,23.6,49.2Z" transform="translate(-1823.5 -1047.93)"/></g></svg>