<svg xmlns="http://www.w3.org/2000/svg" width="38.548" height="40" viewBox="0 0 38.548 40"><defs><style>.a{fill:#45a7e6;}</style></defs><g transform="translate(-4.985 -4)"><path class="a" d="M43.117,34.425A2.95,2.95,0,0,0,40.617,33a2.857,2.857,0,0,0-1.336.357l-7.857,4.164V36.8a3.071,3.071,0,0,0-.864-2.143,7.143,7.143,0,0,0-4.85-12.379,6.847,6.847,0,0,0-.764.043,5,5,0,1,0-6.194,5.507,6.893,6.893,0,0,0-.186,1.593,7.079,7.079,0,0,0,1.907,4.857l-1.857.136L12.3,32.989h-.043l-4.286-.714a.714.714,0,0,0-.829.607L5,46.454a.714.714,0,0,0,.6.829L9.882,48H10a.714.714,0,0,0,.714-.571l.571-2.857,13.893,2.9a6.843,6.843,0,0,0,5.25-1.05l11.843-8.071h0a2.936,2.936,0,0,0,.85-3.921ZM16.424,23a3.576,3.576,0,1,1,7.143-.379l-.164.064-.293.107L22.624,23l-.279.143a5.165,5.165,0,0,0-.471.286l-.243.15a5.929,5.929,0,0,0-.571.457l-.143.121a6.706,6.706,0,0,0-.5.507c-.071.079-.136.164-.2.243s-.214.264-.307.4-.136.193-.2.293-.164.279-.243.421-.107.2-.157.3a1.079,1.079,0,0,0-.079.157A3.571,3.571,0,0,1,16.424,23ZM20,29.425a5.579,5.579,0,0,1,.336-1.921,6.885,6.885,0,0,1,.286-.664,5.714,5.714,0,0,1,3.814-2.986,5.943,5.943,0,0,1,1.279-.143,5.714,5.714,0,0,1,3.571,10.157.25.25,0,0,0-.079,0l-.314-.079h-.136a3.2,3.2,0,0,0-.457,0h0l-1.871.057v-.221a2.593,2.593,0,0,0,2.143-2.414,2.7,2.7,0,0,0-2.857-2.5c-.771,0-1.429-.493-1.429-1.071s.657-1.071,1.429-1.071,1.429.493,1.429,1.071h1.429a2.593,2.593,0,0,0-2.143-2.414v-.8H25v.8a2.593,2.593,0,0,0-2.143,2.414,2.7,2.7,0,0,0,2.857,2.5c.771,0,1.429.493,1.429,1.071s-.657,1.071-1.429,1.071-1.429-.493-1.429-1.071H22.853A2.593,2.593,0,0,0,25,33.625v.329l-2.514.186A5.714,5.714,0,0,1,20,29.425ZM9.432,46.461l-2.907-.479L8.446,33.839l2.857.486L10,43.589Zm31.993-9.314L29.61,45.218a5.471,5.471,0,0,1-4.164.836L11.51,43.146l1.229-8.571,5.671,1.279a1.043,1.043,0,0,0,.207,0l3.693-.271h.036l6.007-.443a1.529,1.529,0,0,1,.714.186,1.621,1.621,0,0,1,.9,1.429v1.264l-8.6.693.114,1.429,9.286-.714h0a.657.657,0,0,0,.279-.079l8.879-4.736a1.429,1.429,0,0,1,.714-.171,1.464,1.464,0,0,1,.786,2.707Z" transform="translate(0 -3.997)"/><rect class="a" width="1.429" height="8.571" transform="translate(22.853 4)"/><rect class="a" width="1.429" height="7.857" transform="translate(28.567 9.714)"/><rect class="a" width="1.429" height="5.714" transform="translate(17.139 6.857)"/></g></svg>