<svg xmlns="http://www.w3.org/2000/svg" width="13" height="13" viewBox="0 0 13 13"><defs><style>.a{fill:#999;}</style></defs><path class="a" d="M525.338,985.037a11.222,11.222,0,0,1,5.362,0,9.878,9.878,0,0,1,2.681,1.138,2.166,2.166,0,0,1,1.219,1.788V990.4h-13v-2.437a2.275,2.275,0,0,1,1.219-1.788A7.081,7.081,0,0,1,525.338,985.037Zm5.931,1.869a9.347,9.347,0,0,0-3.331-.65,9.7,9.7,0,0,0-3.331.65c-1.137.406-1.625.813-1.625,1.056v.894h9.912v-.894C532.894,987.719,532.406,987.312,531.269,986.906Zm-5.606-8.531a3.142,3.142,0,1,1-.975,2.275A3.075,3.075,0,0,1,525.662,978.375Zm3.494,1.056a1.767,1.767,0,1,0,.487,1.219A1.653,1.653,0,0,0,529.156,979.431Z" transform="translate(-521.6 -977.4)"/></svg>