<svg xmlns="http://www.w3.org/2000/svg" width="53.99" height="66.5" viewBox="0 0 53.99 66.5"><defs><style>.a{fill:#535e7b;}</style></defs><g transform="translate(-35 -179)"><path class="a" d="M97.815,233.663q0,6.409,0,12.818c0,3.943.01,7.886,0,11.828a6.975,6.975,0,0,1-6.747,7.256c-1.724.106-3.461-.015-5.192-.018-1.286,0-2.572.025-3.858.032-1.015.006-2.029,0-3.044,0-.494,0-.988.026-1.482.026-4.672,0-9.345.011-14.017,0-2.374-.007-4.748-.07-7.123-.08-1.929-.009-3.86-.013-5.788.046a7.019,7.019,0,0,1-6.577-5.636,10.971,10.971,0,0,1-.145-1.787c0-3.419.05-6.838.047-10.257q-.013-14.952-.052-29.9c-.006-3.917-.015-7.834,0-11.751a6.972,6.972,0,0,1,6.062-6.978c1.525-.134,3.07-.022,4.606-.036,1.631-.015,3.262-.051,4.893-.068,1.192-.012,2.385-.008,3.578-.008,4.422,0,8.846.061,13.267-.034a3.878,3.878,0,0,1,3.079,1.268c2.931,2.966,5.893,5.9,8.841,8.852q3.144,3.146,6.283,6.3c.93.933,1.9,1.833,2.765,2.823a2.423,2.423,0,0,1,.577,1.444C97.832,224.418,97.815,229.041,97.815,233.663Zm-21.687-31.73h-.707q-12.163,0-24.326,0a4.3,4.3,0,0,0-4.51,4.522c0,4.191.007,8.381.006,12.572q0,14.8-.008,29.6,0,4.867,0,9.734a4.337,4.337,0,0,0,4.5,4.48q1.386-.011,2.772-.013H90.511a4.283,4.283,0,0,0,4.539-4.558c.014-3.867.035-7.734.034-11.6q0-12.483-.025-24.965c0-.268,0-.537,0-.871h-.907c-3.624,0-7.248.03-10.871-.022a8.01,8.01,0,0,1-2.627-.472,7.03,7.03,0,0,1-4.526-6.77c-.008-3.424,0-6.848,0-10.271Zm2.782,2.114c0,3.187.085,6.286-.026,9.378a4.476,4.476,0,0,0,4.7,4.676c2.722-.063,5.446-.014,8.17-.014h1.155Z" transform="translate(-8.829 -20.112)"/><g transform="translate(3.4 3)"><path class="a" d="M384.6,875l-4,4,4,4-1,1-4-4-4,4-1-1,4-4-4-4,1-1,4,4,4-4Z" transform="translate(-331 -671)"/><path class="a" d="M384.6,875l-4,4,4,4-1,1-4-4-4,4-1-1,4-4-4-4,1-1,4,4,4-4Z" transform="translate(-311 -671)"/></g><rect class="a" width="30" height="2" transform="translate(47 228)"/></g></svg>